PathFileType	4	(X/Y/Z)	C:/Users/opensim2020/Desktop/walking_exp_matlab/subject03_walking10_straight_03.trc																																																																																																																																					
DataRate	CameraRate	NumFrames	NumMarkers	Units	OrigDataRate	OrigDataStartFrame	OrigNumFrames																																																																																																																																	
100	100	8	45	mm	100	3050	417																																																																																																																																	
Frame#	Time	LFHD			RFHD			LBHD			RBHD			C7			T10			CLAV			STRN			RBAK			LSHO			LUPA			LELB			LFRM			LWRA			LWRB			LFIN			RSHO			RUPA			RELB			RFRM			RWRA			RWRB			RFIN			LASI			RASI			LPSI			RPSI			LTHI			LKNE			LTIB			LANK			LHEE			LTOE			RTHI			RKNE			RTIB			RANK			RHEE			RTOE			*39			*40			*41			*42			*43			*44		
		X1	Y1	Z1	X2	Y2	Z2	X3	Y3	Z3	X4	Y4	Z4	X5	Y5	Z5	X6	Y6	Z6	X7	Y7	Z7	X8	Y8	Z8	X9	Y9	Z9	X10	Y10	Z10	X11	Y11	Z11	X12	Y12	Z12	X13	Y13	Z13	X14	Y14	Z14	X15	Y15	Z15	X16	Y16	Z16	X17	Y17	Z17	X18	Y18	Z18	X19	Y19	Z19	X20	Y20	Z20	X21	Y21	Z21	X22	Y22	Z22	X23	Y23	Z23	X24	Y24	Z24	X25	Y25	Z25	X26	Y26	Z26	X27	Y27	Z27	X28	Y28	Z28	X29	Y29	Z29	X30	Y30	Z30	X31	Y31	Z31	X32	Y32	Z32	X33	Y33	Z33	X34	Y34	Z34	X35	Y35	Z35	X36	Y36	Z36	X37	Y37	Z37	X38	Y38	Z38	X39	Y39	Z39	X40	Y40	Z40	X41	Y41	Z41	X42	Y42	Z42	X43	Y43	Z43	X44	Y44	Z44	X45	Y45	Z45
																																																																																																																																								
313	3.12	894.64771	1620.65674	1347.61755	890.24237	1625.61377	1480.31091	775.99066	1554.51648	1349.68738	777.33533	1560.10046	1480.61023	761.30347	1409.83704	1400.12781	727.26483	1097.63123	1399.72144	882.93707	1333.4718	1408.7063	926.51807	1168.4375	1401.96606	701.72418	1233.90259	1488.96033	851.55811	1373.64417	1252.57861	885.30188	1187.72351	1174.88306	930.80365	1074.16443	1161.87585	1009.26721	972.01978	1173.92969	1074.15613	877.78961	1216.13489	1059.97473	870.23145	1163.06116	1113.57373	808.18915	1180.04211	826.638	1352.54492	1565.29907	824.61426	1128.79932	1633.41919	838.66187	1016.79425	1645.57495	853.81226	880.41528	1648.71655	885.06085	784.84375	1615.34631	850.40961	779.5531	1656.875	873.56366	708.27753	1648.01855	890.51184	932.05896	1285.703	890.21997	934.05707	1524.14124	729.38806	958.33887	1336.96973	728.78473	960.73804	1485.6333	805.45367	633.93463	1259.94104	780.10736	458.78418	1302.78552	698.73779	279.11917	1306.48474	646.85498	75.95578	1353.80811	604.50232	43.61356	1392.17151	796.46924	35.31574	1364.65186	893.3324	642.93359	1580.82996	972.55737	480.65793	1546.79724	982.46271	294.97595	1553.14758	1030.92493	81.55244	1515.54858	1001.39331	42.87657	1458.35266	1176.03711	68.67423	1508.65967	801.4126	1666.01428	1398.07654	NaN	NaN	NaN	NaN	NaN	NaN	NaN	NaN	NaN	NaN	NaN	NaN	NaN	NaN	NaN
314	3.13	901.15338	1620.22437	1348.84131	896.76923	1624.78821	1481.58289	782.66626	1553.75427	1350.69556	783.99255	1558.99707	1481.6532	768.20111	1409.24536	1400.92249	734.90247	1096.87146	1401.00427	889.88733	1332.71326	1409.13757	933.39014	1167.59155	1402.10376	708.78857	1233.17749	1489.67432	857.9845	1373.01367	1253.01538	891.10876	1186.86145	1175.66541	936.61371	1073.27124	1162.8894	1014.99341	971.20978	1175.34192	1080.12256	877.39795	1218.0293	1065.66711	869.3067	1164.97351	1119.50452	807.48669	1182.25195	834.0224	1351.47815	1565.90283	831.53821	1127.63953	1633.60815	844.96863	1015.44598	1645.58826	859.15985	878.99481	1648.84204	889.49243	783.10028	1615.43884	854.867	778.13281	1657.02637	877.06769	706.36639	1647.89526	896.70526	931.33075	1285.99475	897.37427	933.28619	1524.83679	735.66669	957.50104	1337.77466	735.57684	960.02667	1486.49255	810.21332	633.63434	1260.20044	784.06232	458.72836	1302.91394	700.81195	279.39221	1306.53333	647.10864	76.55433	1353.6571	604.59015	44.58372	1391.98511	796.33453	35.27699	1364.83521	898.54724	641.58112	1580.44482	977.99829	479.50116	1546.04504	990.95874	294.48807	1552.89734	1043.54016	81.79617	1515.55493	1015.06573	42.79803	1458.73389	1189.24854	70.75455	1508.80249	807.72034	1664.99561	1399.2677	NaN	NaN	NaN	NaN	NaN	NaN	NaN	NaN	NaN	NaN	NaN	NaN	NaN	NaN	NaN
315	3.14	907.69098	1619.82715	1350.11731	903.28577	1624.01416	1482.89966	789.4834	1553.02576	1351.75208	790.74384	1557.91064	1482.70947	775.2843	1408.45789	1402.1051	741.76276	1096.33899	1401.96558	896.92902	1332.00195	1409.54797	940.3194	1166.86121	1402.31274	715.88495	1232.45605	1490.41687	864.52478	1372.45142	1253.50818	897.10077	1186.12085	1176.51941	942.08276	1072.25232	1164.02722	1020.47675	970.19421	1176.7572	1085.61365	876.59967	1219.76868	1071.05786	868.23511	1166.71558	1124.97095	806.47052	1184.49219	841.54126	1350.49792	1566.5481	838.54279	1126.50439	1633.72083	851.45453	1014.24817	1645.62146	864.33167	877.53436	1648.74805	894.07288	781.47345	1615.53735	859.39362	776.84967	1657.17065	881.09338	705.10028	1648.30713	903.14618	930.59784	1286.43237	904.30859	932.3974	1525.31848	741.76227	956.81885	1338.72766	742.43854	959.35309	1487.42334	814.98743	633.27399	1260.56982	787.7265	458.24313	1302.88904	703.091	279.73267	1306.54211	647.47833	77.27816	1353.49573	604.47351	45.93697	1391.97559	796.47601	35.29276	1364.67102	904.11279	640.41516	1579.96753	983.84717	478.34161	1545.18066	999.06964	293.98859	1552.82898	1054.75586	81.87288	1515.65186	1026.56079	42.6615	1458.67383	1200.79919	72.40638	1508.70898	814.27234	1664.35754	1400.73083	NaN	NaN	NaN	NaN	NaN	NaN	NaN	NaN	NaN	NaN	NaN	NaN	NaN	NaN	NaN
316	3.15	914.40576	1619.53235	1351.44299	909.87897	1623.31519	1484.21777	796.34412	1552.39783	1352.78271	797.4917	1556.94031	1483.82471	782.45026	1407.8949	1403.03601	748.48621	1095.85791	1402.88074	904.10724	1331.35132	1410.03784	947.36285	1166.17188	1402.56262	723.13477	1231.88745	1491.27051	871.12024	1371.94385	1254.12903	902.98572	1185.26172	1177.37512	947.62909	1071.20325	1165.16235	1025.84692	969.10126	1178.18311	1090.91199	875.55902	1221.46533	1076.21155	866.85846	1168.7417	1130.05469	805.13873	1186.77063	849.05554	1349.60864	1567.229	845.58496	1125.44128	1634.00024	858.11902	1013.11261	1645.58716	869.85706	876.34869	1648.84717	898.78522	779.98395	1615.71545	864.13812	775.67297	1657.2843	885.0451	703.70404	1648.44385	909.39984	929.92883	1287.08826	911.40454	931.63745	1525.79773	747.52423	956.16687	1339.82397	749.48059	958.79816	1488.37854	819.73914	633.04486	1260.90161	791.6839	458.0994	1302.96057	705.26117	280.21893	1306.58679	647.94196	78.29061	1353.34583	604.90826	47.10184	1391.64856	796.55072	35.27034	1364.65027	910.05914	639.44824	1579.59387	989.96307	477.57828	1545.08276	1006.81805	293.47369	1552.64539	1064.48853	81.88511	1515.8822	1036.54749	42.17845	1459.02209	1210.42798	73.33734	1508.21106	820.75763	1663.724	1402.13293	NaN	NaN	NaN	NaN	NaN	NaN	NaN	NaN	NaN	NaN	NaN	NaN	NaN	NaN	NaN
317	3.16	921.12366	1619.31396	1352.73132	916.56085	1622.69873	1485.57275	803.13721	1552.01392	1353.7771	804.32867	1556.02307	1484.94397	789.61707	1407.13269	1404.10168	754.74066	1095.51636	1403.41113	911.16107	1330.69568	1410.56262	954.47223	1165.56189	1402.8551	730.44446	1231.35168	1492.14539	877.93146	1371.57068	1254.75525	908.86188	1184.45496	1178.36389	953.08826	1070.04468	1166.33374	1030.98499	967.80182	1179.59485	1095.9408	874.4494	1223.37695	1081.00647	865.42651	1170.40198	1134.70227	803.46741	1188.96118	856.65283	1348.85242	1568.03223	852.82806	1124.6427	1634.27991	864.91357	1012.29913	1645.91785	875.49835	875.28339	1649.04224	903.63586	778.63721	1615.86377	868.95258	774.68597	1657.67712	889.20844	702.48291	1648.66345	915.73395	929.27307	1287.48389	918.28223	930.8158	1526.01953	754.20416	955.60535	1340.81335	756.60364	958.31915	1489.35046	824.66132	632.84698	1261.18274	795.67627	457.8815	1302.96228	707.65118	280.71576	1306.67871	648.513	79.32189	1353.21973	604.81793	48.60487	1391.75488	796.59381	35.2145	1364.62915	916.71515	638.76538	1579.49194	996.4762	476.85995	1545.03894	1013.75812	292.84915	1552.71008	1072.04712	80.9271	1515.47766	1044.35559	41.40403	1459.09912	1218.47217	73.6617	1507.30444	827.27625	1662.93054	1403.297	NaN	NaN	NaN	NaN	NaN	NaN	NaN	NaN	NaN	NaN	NaN	NaN	NaN	NaN	NaN
318	3.17	927.87061	1619.09521	1354.11658	923.32416	1622.1532	1486.90674	810.17615	1551.3678	1355.12292	811.29175	1555.22107	1486.12964	796.70209	1406.8291	1404.68945	762.5047	1095.02368	1404.88647	918.3764	1330.24268	1411.2168	961.66632	1165.0387	1403.2168	737.8064	1230.80029	1493.09119	884.68665	1371.12549	1255.422	914.789	1183.60938	1179.36243	958.44415	1069.06787	1167.53308	1035.96106	966.4624	1181.07861	1100.61182	872.96722	1225.03503	1085.61084	863.79449	1172.19519	1138.94861	801.59509	1191.10645	864.35669	1348.22754	1568.89417	859.93945	1123.80542	1634.69324	871.57874	1011.44055	1646.03992	881.30963	874.38324	1649.26013	908.65924	777.42523	1616.10278	874.01135	773.79144	1657.84583	893.49628	701.40833	1648.94641	922.1936	928.74878	1287.65918	926.04456	930.45813	1526.65894	761.09406	955.2157	1341.82739	763.80762	957.95612	1490.35535	829.53156	632.76001	1261.50256	799.79657	457.737	1303.00293	710.06287	281.38446	1306.71118	648.99194	80.32825	1353.10046	605.30994	50.00191	1391.41138	796.73822	35.18206	1364.61328	923.86041	638.26422	1579.45789	1003.01038	475.98334	1544.50037	1020.14783	292.02133	1552.53491	1078.78137	80.85387	1515.66467	1050.11194	40.34965	1459.13867	1224.5907	72.88251	1505.94922	833.73615	1661.93188	1405.20471	NaN	NaN	NaN	NaN	NaN	NaN	NaN	NaN	NaN	NaN	NaN	NaN	NaN	NaN	NaN
319	3.18	934.64771	1618.95313	1355.38428	930.17303	1621.73462	1488.25891	817.51996	1551.19849	1356.57568	818.26001	1554.5127	1487.31201	804.14551	1406.43506	1405.84424	769.77936	1094.76672	1405.86047	925.68921	1329.8772	1411.88586	968.89081	1164.57007	1403.62744	745.3385	1230.40027	1494.12744	891.51276	1370.66077	1256.09705	920.65106	1182.79724	1180.55969	963.74231	1067.92102	1168.80713	1040.78149	964.95953	1182.52283	1104.95166	871.22412	1226.56616	1089.87878	861.99634	1173.88977	1142.85498	799.44739	1193.16101	872.08093	1347.74182	1569.75793	867.27246	1123.36792	1635.27759	878.5307	1010.82062	1646.4491	887.25067	873.65027	1649.54626	913.38953	776.32861	1616.13489	879.27441	773.14709	1658.19043	898.06873	700.53827	1649.24207	928.74615	928.37341	1287.98889	933.64148	930.04926	1527.00769	768.08325	954.86798	1342.98877	771.24023	957.65253	1491.4718	834.6579	632.73242	1261.89429	803.98254	457.87595	1302.97339	712.58417	282.16327	1306.7605	649.63385	81.76086	1352.94617	605.32178	51.86083	1391.53186	796.80408	35.08952	1364.5719	931.5824	637.96478	1579.66089	1009.63843	475.31369	1544.48096	1025.98596	291.17276	1552.42371	1082.823	79.17053	1514.84924	1053.83508	39.22535	1458.87537	1229.01282	71.02434	1504.18091	840.87494	1662.16724	1406.38245	NaN	NaN	NaN	NaN	NaN	NaN	NaN	NaN	NaN	NaN	NaN	NaN	NaN	NaN	NaN
320	3.19	941.55774	1618.8811	1356.67114	937.06641	1621.427	1489.54968	824.60992	1550.88928	1357.80786	825.38092	1553.91785	1488.51941	811.70428	1406.25549	1407.24463	777.03784	1094.46594	1406.95581	933.31421	1329.62427	1412.70728	976.27997	1164.22437	1404.099	752.93372	1230.05762	1495.22559	898.53247	1370.40723	1256.88025	926.51373	1182.09033	1181.56116	968.92126	1066.82251	1170.14856	1045.35413	963.40619	1184.09473	1109.04883	869.34711	1228.20398	1093.8042	860.11011	1175.54382	1146.28418	797.14777	1195.11572	879.91937	1347.35645	1570.66199	874.62793	1122.95227	1635.85278	885.36877	1010.16864	1646.65833	893.35315	873.0802	1649.90674	918.78809	775.55292	1616.45276	884.69342	772.66534	1658.69861	902.65198	699.52502	1649.22852	935.14331	927.89563	1288.3125	941.43994	929.74023	1527.38208	775.09442	954.56073	1344.32825	778.80457	957.42212	1492.69458	839.76093	632.82288	1262.09521	808.33893	457.82178	1302.98413	715.10547	283.06351	1306.79211	650.19476	83.17953	1352.77319	605.74225	53.81247	1391.45667	796.92029	35.09593	1364.56213	939.73163	637.7865	1579.86853	1016.26678	474.55917	1544.1781	1031.15344	290.13147	1552.12854	1085.70361	77.59292	1514.29248	1055.93115	38.0071	1458.90125	1231.72351	68.16505	1502.12927	847.21118	1660.94446	1408.48315	NaN	NaN	NaN	NaN	NaN	NaN	NaN	NaN	NaN	NaN	NaN	NaN	NaN	NaN	NaN
